name D:\school\WTK\thesis\model\3dpredictsim\Results\MidTarsalJoint\Fal_s1_bCst_PF_Natali2010_ls150_MT_k150_MTP_T10_ig24.mot
datacolumns 128
datarows 4
range 0.00000000 0.03502147
endheader
time	pelvis_tilt	pelvis_list	pelvis_rotation	pelvis_tx	pelvis_ty	pelvis_tz	hip_flexion_l	hip_adduction_l	hip_rotation_l	hip_flexion_r	hip_adduction_r	hip_rotation_r	knee_angle_l	knee_angle_r	ankle_angle_l	ankle_angle_r	subtalar_angle_l	subtalar_angle_r	mtj_angle_l	mtj_angle_r	mtp_angle_l	mtp_angle_r	lumbar_extension	lumbar_bending	lumbar_rotation	arm_flex_l	arm_add_l	arm_rot_l	arm_flex_r	arm_add_r	arm_rot_r	elbow_flex_l	elbow_flex_r	pro_sup_l	pro_sup_r	glut_med1_l/activation	glut_med2_l/activation	glut_med3_l/activation	glut_min1_l/activation	glut_min2_l/activation	glut_min3_l/activation	semimem_l/activation	semiten_l/activation	bifemlh_l/activation	bifemsh_l/activation	sar_l/activation	add_long_l/activation	add_brev_l/activation	add_mag1_l/activation	add_mag2_l/activation	add_mag3_l/activation	tfl_l/activation	pect_l/activation	grac_l/activation	glut_max1_l/activation	glut_max2_l/activation	glut_max3_l/activation	iliacus_l/activation	psoas_l/activation	quad_fem_l/activation	gem_l/activation	peri_l/activation	rect_fem_l/activation	vas_med_l/activation	vas_int_l/activation	vas_lat_l/activation	med_gas_l/activation	lat_gas_l/activation	soleus_l/activation	tib_post_l/activation	flex_dig_l/activation	flex_hal_l/activation	tib_ant_l/activation	per_brev_l/activation	per_long_l/activation	per_tert_l/activation	ext_dig_l/activation	ext_hal_l/activation	ercspn_l/activation	intobl_l/activation	extobl_l/activation	glut_med1_r/activation	glut_med2_r/activation	glut_med3_r/activation	glut_min1_r/activation	glut_min2_r/activation	glut_min3_r/activation	semimem_r/activation	semiten_r/activation	bifemlh_r/activation	bifemsh_r/activation	sar_r/activation	add_long_r/activation	add_brev_r/activation	add_mag1_r/activation	add_mag2_r/activation	add_mag3_r/activation	tfl_r/activation	pect_r/activation	grac_r/activation	glut_max1_r/activation	glut_max2_r/activation	glut_max3_r/activation	iliacus_r/activation	psoas_r/activation	quad_fem_r/activation	gem_r/activation	peri_r/activation	rect_fem_r/activation	vas_med_r/activation	vas_int_r/activation	vas_lat_r/activation	med_gas_r/activation	lat_gas_r/activation	soleus_r/activation	tib_post_r/activation	flex_dig_r/activation	flex_hal_r/activation	tib_ant_r/activation	per_brev_r/activation	per_long_r/activation	per_tert_r/activation	ext_dig_r/activation	ext_hal_r/activation	ercspn_r/activation	intobl_r/activation	extobl_r/activation	
          0.00000000	         -2.93017648	         -2.49024682	          6.21433660	          0.00000000	          0.91584912	         -0.00245838	        -16.72365145	         -1.43411827	          6.12228708	         28.74918003	          3.62886468	         -2.32186294	         -9.50942532	         -8.74102140	         -3.32027623	          4.83034817	          4.91643854	         -9.30841541	          7.76488140	         -0.20782956	          6.18368882	         -0.73917512	         -1.51636843	          0.40758079	         -2.60237170	          5.87153640	        -13.45252658	         17.39533056	         -6.75204584	        -13.49633461	          7.64265923	         35.34483142	         15.71007789	         86.51662706	         86.51662706	          0.20729956	          0.08523125	          0.06680502	          0.21360875	          0.15089815	          0.09960805	          0.05000236	          0.05000090	          0.05000074	          0.05000024	          0.10060304	          0.05559922	          0.05014821	          0.05006770	          0.05004426	          0.05972877	          0.26078209	          0.05000624	          0.05000110	          0.05000203	          0.05000181	          0.05000221	          0.40512371	          0.65880203	          0.05000019	          0.05000058	          0.05922952	          0.28141670	          0.10682963	          0.09405772	          0.08063005	          0.26136121	          0.35790289	          0.34371074	          0.25488204	          0.22817698	          0.30431038	          0.05000008	          0.05000025	          0.12200512	          0.05000028	          0.05000009	          0.05000036	          0.05000003	          0.05972829	          0.05972838	          0.05000003	          0.05000006	          0.05000204	          0.05000009	          0.05000010	          0.05000014	          0.21617428	          0.08880287	          0.12730935	          0.08846975	          0.05000165	          0.10096119	          0.21287049	          0.21602769	          0.15404111	          0.11026406	          0.05000048	          0.07134868	          0.11656297	          0.05000082	          0.08996550	          0.12415740	          0.05000044	          0.05000709	          0.38043485	          0.14881959	          0.05403084	          0.05000076	          0.05972822	          0.05972821	          0.05972819	          0.07134852	          0.07134922	          0.06272503	          0.05972859	          0.05972749	          0.05972874	          0.39053363	          0.23613899	          0.20595041	          0.09254540	          0.38494105	          0.17123732	          0.05000005	          0.11801360	          0.10181412	
          0.01167382	         -2.92881938	         -2.56618149	          6.53913198	          0.01784149	          0.91487181	         -0.00229761	        -16.78226121	         -1.75534088	          5.88142411	         28.07983668	          3.85582117	         -2.01740093	        -11.13796377	         -9.50436890	         -3.75439588	          4.17255630	          5.75120841	         -9.58305056	          6.50736461	         -0.32240993	          8.08019680	         -0.68644288	         -1.28351550	          0.57716400	         -2.65746819	          5.54459340	        -13.45796478	         17.63417405	         -7.76636760	        -13.49015489	          7.68034547	         36.65019929	         15.37297164	         86.51662706	         86.51662706	          0.24840938	          0.07134934	          0.05592434	          0.27771259	          0.12632084	          0.08338455	          0.05000119	          0.05000021	          0.05000019	          0.05000027	          0.08421903	          0.05000022	          0.05000030	          0.05000038	          0.05000084	          0.05000108	          0.21831700	          0.05000095	          0.05000077	          0.05000296	          0.05000184	          0.05000108	          0.35310570	          0.64854576	          0.05000035	          0.05000142	          0.05000044	          0.23558126	          0.08943308	          0.13558719	          0.13529393	          0.21879220	          0.29960977	          0.29478613	          0.23515192	          0.19101356	          0.25474712	          0.05000002	          0.06798417	          0.14267404	          0.05000012	          0.05000003	          0.05000014	          0.05000002	          0.05000010	          0.05000019	          0.19408744	          0.18121462	          0.21620690	          0.16820116	          0.09288247	          0.13884391	          0.18096508	          0.07435687	          0.10657397	          0.09889266	          0.05002984	          0.08451729	          0.17819945	          0.18084250	          0.12895212	          0.12628966	          0.05000039	          0.05972904	          0.11522400	          0.05000126	          0.11943902	          0.11240029	          0.05003696	          0.05000052	          0.31847186	          0.12458083	          0.14875220	          0.05000004	          0.05000010	          0.05000010	          0.05000009	          0.05972770	          0.05972830	          0.05250875	          0.05000036	          0.05000040	          0.05000069	          0.49062873	          0.33079325	          0.21074494	          0.30910263	          0.48889494	          0.19476932	          0.05000046	          0.14528667	          0.08523122	
          0.02334765	         -2.92567330	         -2.63632929	          6.81930609	          0.03582558	          0.91401348	         -0.00210961	        -16.77450155	         -2.07034026	          5.65323242	         27.39902773	          4.06841191	         -1.71616418	        -12.84152778	        -10.23087927	         -4.30687182	          3.51385054	          6.54569221	         -9.85811620	          5.05303426	         -0.27555274	         10.12597046	         -0.66524241	         -1.05136239	          0.75490762	         -2.70458401	          5.16769460	        -13.46645763	         17.83290882	         -8.77509407	        -13.48501319	          7.73022828	         37.88548542	         15.10703710	         86.51662706	         86.51662706	          0.27385378	          0.05972843	          0.05000015	          0.27532200	          0.10574650	          0.06980343	          0.05000146	          0.05000019	          0.05000015	          0.05000023	          0.07050271	          0.07651248	          0.05000072	          0.05000075	          0.05000133	          0.05000052	          0.18275967	          0.05003219	          0.05000094	          0.05000196	          0.05000139	          0.05000098	          0.29559441	          0.62488084	          0.05000024	          0.05000084	          0.05000027	          0.19721117	          0.15751679	          0.11351202	          0.14183778	          0.18315658	          0.25081106	          0.24677306	          0.19685246	          0.15990257	          0.21325554	          0.05000004	          0.07258827	          0.14605699	          0.05000026	          0.05000039	          0.05000022	          0.05690711	          0.05000001	          0.05000003	          0.27777000	          0.28258857	          0.31425689	          0.14080624	          0.16548312	          0.18457892	          0.15149054	          0.06224652	          0.08921587	          0.08278564	          0.05000045	          0.07075165	          0.14917540	          0.15138815	          0.10794992	          0.14953653	          0.05000055	          0.05000183	          0.09645724	          0.18760192	          0.17239399	          0.14639362	          0.05000008	          0.05000010	          0.26660106	          0.10428993	          0.12452480	          0.05000012	          0.08136491	          0.08423697	          0.06672263	          0.05000003	          0.05000015	          0.05000001	          0.05000013	          0.05000037	          0.05000034	          0.55956146	          0.33328323	          0.21173620	          0.37641394	          0.50952688	          0.27091279	          0.07236112	          0.12162328	          0.07134926	
          0.03502147	         -2.92145931	         -2.69835722	          7.05612935	          0.05378569	          0.91337117	         -0.00189162	        -16.67344686	         -2.37391869	          5.44071957	         26.77024030	          4.29213414	         -1.42523269	        -14.63361204	        -11.02775145	         -5.02968283	          2.81739187	          7.29689743	        -10.13763120	          3.46634122	         -0.30163110	         12.19232305	         -0.65650663	         -0.83278452	          0.93947019	         -2.74333108	          4.77639634	        -13.47444791	         18.01714183	         -9.74241248	        -13.47820715	          7.78839029	         39.01295956	         14.88847643	         86.51662706	         86.51662706	          0.28630807	          0.05000031	          0.05000008	          0.23994855	          0.08852319	          0.05843435	          0.05000168	          0.05000023	          0.05000021	          0.05000016	          0.05902025	          0.11835053	          0.06168913	          0.05000225	          0.05000278	          0.05002361	          0.15299310	          0.05974959	          0.05000070	          0.05000152	          0.05000103	          0.05000084	          0.24744973	          0.58360452	          0.05000013	          0.05000049	          0.05000014	          0.16509056	          0.13189354	          0.14259340	          0.12513293	          0.15332509	          0.20996040	          0.20658007	          0.16479051	          0.13385870	          0.17852181	          0.05000087	          0.09822197	          0.12226955	          0.05000139	          0.11411395	          0.05000772	          0.07377300	          0.05000001	          0.05000003	          0.34419667	          0.34099040	          0.36789520	          0.12683019	          0.14243095	          0.16307720	          0.12681666	          0.07321066	          0.07851799	          0.06930206	          0.05000044	          0.05922814	          0.12487877	          0.12673467	          0.17941458	          0.17965506	          0.05000026	          0.05000190	          0.08074943	          0.24015013	          0.21217981	          0.19073234	          0.05000009	          0.05000009	          0.22317869	          0.08730390	          0.10424881	          0.05000006	          0.12270707	          0.12937267	          0.10590912	          0.05000003	          0.05000006	          0.05000000	          0.05000002	          0.05000011	          0.05000012	          0.59668691	          0.30348893	          0.18607251	          0.49107840	          0.55219440	          0.28268086	          0.08202869	          0.10181400	          0.05972831	
